<svg width="61" height="60" viewBox="0 0 61 60" fill="none" xmlns="http://www.w3.org/2000/svg">
<path d="M30.5 13.7445C26.5425 13.7447 22.7141 15.153 19.6999 17.7176C16.6858 20.2821 14.6825 23.8355 14.0486 27.742C13.4146 31.6484 14.1914 35.653 16.2398 39.0391C18.2883 42.4252 21.4748 44.972 25.2292 46.2237C26.0625 46.3695 26.375 45.8695 26.375 45.432C26.375 45.0362 26.3542 43.7236 26.3542 42.3278C22.1667 43.0986 21.0833 41.307 20.75 40.3695C20.3801 39.4578 19.7938 38.6497 19.0417 38.0153C18.4583 37.7028 17.625 36.932 19.0208 36.9112C19.5538 36.969 20.065 37.1545 20.5111 37.4519C20.9571 37.7492 21.3249 38.1498 21.5833 38.6195C21.8113 39.029 22.1178 39.3895 22.4853 39.6803C22.8528 39.9711 23.2741 40.1866 23.7251 40.3143C24.176 40.4421 24.6477 40.4796 25.1131 40.4247C25.5786 40.3698 26.0286 40.2236 26.4375 39.9945C26.5096 39.1472 26.8872 38.355 27.5 37.7654C23.7917 37.3487 19.9167 35.9111 19.9167 29.5362C19.8932 27.8798 20.5045 26.2772 21.625 25.057C21.1155 23.6174 21.1751 22.0375 21.7917 20.6404C21.7917 20.6404 23.1875 20.2029 26.375 22.3487C29.1021 21.5987 31.9812 21.5987 34.7083 22.3487C37.8958 20.182 39.2917 20.6404 39.2917 20.6404C39.9083 22.0375 39.968 23.6174 39.4583 25.057C40.5822 26.2751 41.194 27.8791 41.1667 29.5362C41.1667 35.932 37.2708 37.3487 33.5625 37.7654C33.9603 38.1685 34.2666 38.6525 34.4607 39.1846C34.6548 39.7166 34.7322 40.2842 34.6875 40.8487C34.6875 43.0779 34.6667 44.8695 34.6667 45.432C34.6667 45.8696 34.9792 46.3904 35.8125 46.2237C39.5603 44.9618 42.7376 42.4091 44.7774 39.0212C46.8171 35.6334 47.5865 31.6309 46.9481 27.7282C46.3098 23.8256 44.3053 20.2768 41.2924 17.7154C38.2796 15.1539 34.4545 13.7466 30.5 13.7445Z" fill="#1B1B1B"/>
</svg>
