<svg width="61" height="60" viewBox="0 0 61 60" fill="none" xmlns="http://www.w3.org/2000/svg">
<path d="M39.4 19.1C39.0044 19.1 38.6177 19.2173 38.2888 19.4371C37.9599 19.6568 37.7036 19.9692 37.5522 20.3346C37.4008 20.7001 37.3612 21.1022 37.4384 21.4902C37.5156 21.8781 37.7061 22.2345 37.9858 22.5142C38.2655 22.7939 38.6218 22.9844 39.0098 23.0616C39.3978 23.1387 39.7999 23.0991 40.1653 22.9478C40.5308 22.7964 40.8432 22.54 41.0629 22.2111C41.2827 21.8822 41.4 21.4956 41.4 21.1C41.4 20.5696 41.1893 20.0609 40.8142 19.6858C40.4391 19.3107 39.9304 19.1 39.4 19.1V19.1ZM47.0666 23.1333C47.0342 21.7505 46.7752 20.3823 46.3 19.0833C45.8762 17.9719 45.2166 16.9655 44.3666 16.1333C43.5414 15.279 42.5326 14.6236 41.4166 14.2167C40.1211 13.7269 38.7514 13.462 37.3666 13.4333C35.6 13.3333 35.0333 13.3333 30.5 13.3333C25.9666 13.3333 25.4 13.3333 23.6333 13.4333C22.2486 13.462 20.8789 13.7269 19.5833 14.2167C18.4694 14.6277 17.4615 15.2826 16.6333 16.1333C15.779 16.9586 15.1236 17.9674 14.7166 19.0833C14.2269 20.3789 13.962 21.7486 13.9333 23.1333C13.8333 24.9 13.8333 25.4667 13.8333 30C13.8333 34.5333 13.8333 35.1 13.9333 36.8667C13.962 38.2514 14.2269 39.6211 14.7166 40.9167C15.1236 42.0326 15.779 43.0414 16.6333 43.8667C17.4615 44.7174 18.4694 45.3723 19.5833 45.7833C20.8789 46.2731 22.2486 46.538 23.6333 46.5667C25.4 46.6667 25.9666 46.6667 30.5 46.6667C35.0333 46.6667 35.6 46.6667 37.3666 46.5667C38.7514 46.538 40.1211 46.2731 41.4166 45.7833C42.5326 45.3764 43.5414 44.721 44.3666 43.8667C45.2204 43.0376 45.8805 42.0303 46.3 40.9167C46.7752 39.6177 47.0342 38.2495 47.0666 36.8667C47.0666 35.1 47.1666 34.5333 47.1666 30C47.1666 25.4667 47.1666 24.9 47.0666 23.1333V23.1333ZM44.0666 36.6667C44.0545 37.7246 43.8629 38.7728 43.5 39.7667C43.2339 40.492 42.8064 41.1474 42.25 41.6833C41.7094 42.2342 41.0554 42.6607 40.3333 42.9333C39.3395 43.2963 38.2913 43.4879 37.2333 43.5C35.5666 43.5833 34.95 43.6 30.5666 43.6C26.1833 43.6 25.5666 43.6 23.9 43.5C22.8015 43.5206 21.7076 43.3514 20.6666 43C19.9763 42.7135 19.3522 42.288 18.8333 41.75C18.2801 41.2146 17.8581 40.5587 17.6 39.8333C17.1931 38.8253 16.9674 37.7532 16.9333 36.6667C16.9333 35 16.8333 34.3833 16.8333 30C16.8333 25.6167 16.8333 25 16.9333 23.3333C16.9408 22.2518 17.1382 21.1799 17.5166 20.1667C17.8101 19.4632 18.2604 18.8361 18.8333 18.3333C19.3397 17.7603 19.9655 17.3052 20.6666 17C21.6826 16.6334 22.7533 16.4418 23.8333 16.4333C25.5 16.4333 26.1166 16.3333 30.5 16.3333C34.8833 16.3333 35.5 16.3333 37.1666 16.4333C38.2246 16.4455 39.2728 16.6371 40.2666 17C41.024 17.2811 41.7038 17.7381 42.25 18.3333C42.7961 18.8453 43.2229 19.4712 43.5 20.1667C43.8704 21.1816 44.0621 22.253 44.0666 23.3333C44.15 25 44.1666 25.6167 44.1666 30C44.1666 34.3833 44.15 35 44.0666 36.6667ZM30.5 21.45C28.8097 21.4533 27.1583 21.9575 25.7544 22.899C24.3506 23.8405 23.2573 25.177 22.6127 26.7396C21.9681 28.3022 21.8012 30.0208 22.133 31.6782C22.4648 33.3357 23.2804 34.8576 24.4768 36.0516C25.6732 37.2457 27.1967 38.0584 28.8547 38.3869C30.5128 38.7155 32.2311 38.5452 33.7924 37.8976C35.3538 37.2499 36.6881 36.1541 37.6269 34.7484C38.5656 33.3427 39.0666 31.6903 39.0666 30C39.0689 28.8752 38.8487 27.761 38.4187 26.7216C37.9888 25.6822 37.3576 24.738 36.5614 23.9434C35.7653 23.1488 34.8199 22.5195 33.7796 22.0915C32.7394 21.6636 31.6248 21.4456 30.5 21.45V21.45ZM30.5 35.55C29.4023 35.55 28.3293 35.2245 27.4166 34.6147C26.5039 34.0048 25.7925 33.138 25.3724 32.1239C24.9524 31.1098 24.8425 29.9938 25.0566 28.9172C25.2708 27.8407 25.7994 26.8517 26.5755 26.0756C27.3517 25.2994 28.3406 24.7708 29.4172 24.5566C30.4938 24.3425 31.6097 24.4524 32.6239 24.8725C33.638 25.2925 34.5048 26.0039 35.1146 26.9166C35.7245 27.8293 36.05 28.9023 36.05 30C36.05 30.7288 35.9064 31.4505 35.6275 32.1239C35.3486 32.7972 34.9398 33.4091 34.4244 33.9244C33.9091 34.4398 33.2972 34.8486 32.6239 35.1275C31.9505 35.4064 31.2288 35.55 30.5 35.55V35.55Z" fill="#1B1B1B"/>
</svg>
