<svg width="61" height="60" viewBox="0 0 61 60" fill="none" xmlns="http://www.w3.org/2000/svg">
<path d="M16 19.2525C16 18.3098 16.3266 17.532 16.9797 16.9192C17.6329 16.3064 18.482 16 19.527 16C20.5534 16 21.3838 16.3017 22.0183 16.9051C22.6715 17.5273 22.9981 18.338 22.9981 19.3374C22.9981 20.2424 22.6808 20.9966 22.0463 21.6C21.3932 22.2222 20.5347 22.5333 19.471 22.5333H19.4431C18.4167 22.5333 17.5862 22.2222 16.9517 21.6C16.3172 20.9778 16 20.1953 16 19.2525ZM16.3639 44V25.1071H22.5782V44H16.3639ZM26.0212 44H32.2355V33.4505C32.2355 32.7905 32.3102 32.2815 32.4595 31.9232C32.7207 31.2821 33.1173 30.74 33.6491 30.297C34.181 29.8539 34.8481 29.6323 35.6506 29.6323C37.7407 29.6323 38.7857 31.0559 38.7857 33.903V44H45V33.1677C45 30.3771 44.3469 28.2606 43.0405 26.8182C41.7342 25.3758 40.0081 24.6546 37.862 24.6546C35.4546 24.6546 33.5792 25.701 32.2355 27.7939V27.8505H32.2075L32.2355 27.7939V25.1071H26.0212C26.0585 25.7104 26.0772 27.5865 26.0772 30.7354C26.0772 33.8842 26.0585 38.3057 26.0212 44Z" fill="#1B1B1B"/>
</svg>
