<svg width="61" height="60" viewBox="0 0 61 60" fill="none" xmlns="http://www.w3.org/2000/svg">
<path d="M38.1667 33.3333C37.8333 33.1667 35.6667 32.1667 35.3333 32C35 31.8333 34.6667 31.8333 34.3333 32.1667C34 32.5 33.3333 33.5 33 33.8333C32.8333 34.1667 32.5 34.1667 32.1667 34C31 33.5 29.8333 32.8333 28.8333 32C28 31.1667 27.1667 30.1667 26.5 29.1667C26.3333 28.8333 26.5 28.5 26.6667 28.3333C26.8333 28.1667 27 27.8333 27.3333 27.6667C27.5 27.5 27.6667 27.1667 27.6667 27C27.8333 26.8333 27.8333 26.5 27.6667 26.3333C27.5 26.1667 26.6667 24.1667 26.3333 23.3333C26.1667 22.1667 25.8333 22.1667 25.5 22.1667C25.3333 22.1667 25 22.1667 24.6667 22.1667C24.3333 22.1667 23.8333 22.5 23.6667 22.6667C22.6667 23.6667 22.1667 24.8333 22.1667 26.1667C22.3333 27.6667 22.8333 29.1667 23.8333 30.5C25.6667 33.1667 28 35.3333 30.8333 36.6667C31.6667 37 32.3333 37.3333 33.1667 37.5C34 37.8333 34.8333 37.8333 35.8333 37.6667C37 37.5 38 36.6667 38.6667 35.6667C39 35 39 34.3333 38.8333 33.6667C38.8333 33.6667 38.5 33.5 38.1667 33.3333ZM42.3333 18.1667C35.8333 11.6667 25.3333 11.6667 18.8333 18.1667C13.5 23.5 12.5 31.6667 16.1667 38.1667L13.8333 46.6667L22.6667 44.3333C25.1667 45.6667 27.8333 46.3333 30.5 46.3333C39.6667 46.3333 47 39 47 29.8333C47.1667 25.5 45.3333 21.3333 42.3333 18.1667ZM37.8333 41.5C35.6667 42.8333 33.1667 43.6667 30.5 43.6667C28 43.6667 25.6667 43 23.5 41.8333L23 41.5L17.8333 42.8333L19.1667 37.8333L18.8333 37.3333C14.8333 30.6667 16.8333 22.3333 23.3333 18.1667C29.8333 14 38.1667 16.1667 42.1667 22.5C46.1667 29 44.3333 37.5 37.8333 41.5Z" fill="#1B1B1B"/>
</svg>
